<svg id="Layer_1" data-name="Layer 1" xmlns="http://www.w3.org/2000/svg" viewBox="0 0 15.33 13.59">
  <defs>
    <style>
      .cls-1 {
        fill: #004200;
      }
    </style>
  </defs>
  <title>burger</title>
  <path class="cls-1" d="M.88,0H14.46c.48,0,.87.29.87.64V2c0,.36-.39.64-.87.64H.88C.39,2.61,0,2.33,0,2V.64C0,.29.39,0,.88,0Z"/>
  <path class="cls-1" d="M.88,11H14.46c.48,0,.87.29.87.65V13c0,.35-.39.64-.87.64H.88C.39,13.59,0,13.3,0,13V11.62C0,11.26.39,11,.88,11Z"/>
  <path class="cls-1" d="M.88,5.49H14.46c.48,0,.87.28.87.64V7.46c0,.35-.39.64-.87.64H.88C.39,8.1,0,7.81,0,7.46V6.13C0,5.77.39,5.49.88,5.49Z"/>
</svg>
